<?xml version="1.0" encoding="utf-8"?>
<!-- Generator: Adobe Illustrator 21.0.0, SVG Export Plug-In . SVG Version: 6.00 Build 0)  -->
<svg version="1.1" id="Capa_1" xmlns="http://www.w3.org/2000/svg" xmlns:xlink="http://www.w3.org/1999/xlink" x="0px" y="0px"
	 viewBox="0 0 18 17" style="enable-background:new 0 0 18 17;" xml:space="preserve">
<style type="text/css">
	.st0{fill:#1D1F29;}
</style>
<path id="White_2_" class="st0" d="M16.5,0h-15C0.9,0,0.5,0.4,0.5,0.9v15c0,0.5,0.4,0.9,0.9,0.9h8.1v-6.5H7.3V7.8h2.2V5.9
	c0-2.2,1.3-3.4,3.3-3.4c0.9,0,1.7,0.1,2,0.1v2.3l-1.3,0c-1.1,0-1.3,0.5-1.3,1.2v1.6h2.5l-0.3,2.5h-2.2v6.5h4.3
	c0.5,0,0.9-0.4,0.9-0.9v-15C17.4,0.4,17,0,16.5,0z"/>
</svg>
