<?xml version="1.0" encoding="utf-8"?>
<!-- Generator: Adobe Illustrator 21.0.0, SVG Export Plug-In . SVG Version: 6.00 Build 0)  -->
<svg version="1.1" id="Capa_1" xmlns="http://www.w3.org/2000/svg" xmlns:xlink="http://www.w3.org/1999/xlink" x="0px" y="0px"
	 viewBox="0 0 79 35" style="enable-background:new 0 0 79 35;" xml:space="preserve">
<style type="text/css">
	.st0{fill:#1D1F29;}
</style>
<g>
	<g>
		<g>
			<path class="st0" d="M36.2,34.2c-0.1,0-0.1,0-0.1-0.1l-0.4-6.5c0-0.1,0-0.1,0.1-0.1l1.2-0.1c1.2-0.1,1.8,0.4,1.9,1.9
				c0.1,1.4-0.5,2.1-1.7,2.1l-0.4,0c0,0-0.1,0-0.1,0.1l0.2,2.5c0,0.1,0,0.1-0.1,0.1L36.2,34.2z M38.1,29.4c-0.1-0.9-0.4-1.3-1.1-1.2
				l-0.4,0c0,0-0.1,0-0.1,0.1l0.2,2.4c0,0,0,0.1,0.1,0.1l0.4,0C37.9,30.7,38.2,30.4,38.1,29.4z"/>
			<path class="st0" d="M40.8,33c-0.1-0.3-0.2-0.5-0.4-2.4c-0.2-1.9-0.2-2.1-0.2-2.4c0.1-0.7,0.6-1.1,1.3-1.2
				c0.8-0.1,1.3,0.2,1.6,0.8c0.1,0.3,0.2,0.5,0.4,2.4c0.2,1.9,0.2,2.1,0.2,2.4c-0.1,0.7-0.6,1.1-1.3,1.2
				C41.6,33.9,41.1,33.6,40.8,33z M42.9,32.5c0-0.2,0-0.4-0.2-2.2c-0.2-1.9-0.3-2-0.3-2.2c-0.1-0.3-0.4-0.4-0.8-0.4
				c-0.4,0-0.6,0.2-0.6,0.6c0,0.2,0,0.4,0.2,2.2c0.2,1.9,0.3,2,0.4,2.2c0.1,0.3,0.4,0.4,0.8,0.4C42.6,33,42.8,32.8,42.9,32.5z"/>
			<path class="st0" d="M48.7,32.8c-0.1,0-0.1,0-0.1-0.1L47,28.1l0,0l0,4.8c0,0.1,0,0.1-0.1,0.1l-0.5,0.1c-0.1,0-0.1,0-0.1-0.1
				l-2.2-6.2c0-0.1,0-0.1,0.1-0.1l0.6-0.1c0.1,0,0.1,0,0.1,0.1l1.5,4.6l0,0l0-4.9c0-0.1,0-0.1,0.1-0.1l0.4-0.1c0.1,0,0.1,0,0.1,0.1
				l1.6,4.6l0,0l-0.2-4.9c0-0.1,0-0.1,0.1-0.1l0.6-0.1c0.1,0,0.1,0,0.1,0.1l0.1,6.6c0,0.1,0,0.1-0.1,0.1L48.7,32.8z"/>
			<path class="st0" d="M50.4,25.7c0-0.1,0-0.1,0.1-0.1L53,25c0.1,0,0.1,0,0.1,0.1l0.1,0.5c0,0.1,0,0.1-0.1,0.1l-1.7,0.4
				c0,0-0.1,0,0,0.1l0.5,2c0,0,0,0.1,0.1,0l1.5-0.3c0.1,0,0.1,0,0.1,0.1l0.1,0.5c0,0.1,0,0.1-0.1,0.1L52.1,29c0,0-0.1,0,0,0.1
				l0.5,2.1c0,0,0,0.1,0.1,0l1.7-0.4c0.1,0,0.1,0,0.1,0.1l0.1,0.5c0,0.1,0,0.1-0.1,0.1L52,32.1c-0.1,0-0.1,0-0.1-0.1L50.4,25.7z"/>
			<path class="st0" d="M58.5,30.4c-0.1,0-0.1,0-0.1,0l-1.6-2.5c-0.1,0-0.2,0.1-0.3,0.1l-0.4,0.1c0,0-0.1,0,0,0.1l0.7,2.6
				c0,0.1,0,0.1-0.1,0.1l-0.6,0.2c-0.1,0-0.1,0-0.1-0.1l-1.8-6.3c0-0.1,0-0.1,0.1-0.1l1.1-0.3c1.1-0.3,1.9,0,2.3,1.4
				c0.2,0.9,0.1,1.5-0.3,1.9l1.7,2.6c0,0,0,0.1,0,0.1L58.5,30.4z M57,25.9c-0.2-0.9-0.6-1.1-1.3-0.9l-0.4,0.1c0,0-0.1,0,0,0.1
				l0.6,2.2c0,0,0,0.1,0.1,0l0.4-0.1C57.1,27.1,57.3,26.8,57,25.9z"/>
		</g>
		<g>
			<path class="st0" d="M6.2,10.1H5.6c-0.1,0-0.3,0.1-0.3,0.2v5.1c0,0,0,0,0,0H2.1c0,0,0,0,0,0v-4.2C2.1,11.1,2,11,1.8,11H1.3
				C1.1,11,1,11.1,1,11.3v8.9c0,0.1,0.1,0.2,0.3,0.2h0.6c0.1,0,0.3-0.1,0.3-0.2v-3.6c0,0,0,0,0,0h3.1c0,0,0,0,0,0v5.1
				c0,0.1,0.1,0.2,0.3,0.2h0.6c0.1,0,0.3-0.1,0.3-0.2V10.4C6.4,10.2,6.3,10.1,6.2,10.1z"/>
			<path class="st0" d="M11.4,9.7c0-0.1-0.1-0.2-0.3-0.2h-0.6c-0.2,0-0.3,0.2-0.3,0.2L7.7,22.1c0,0.1,0,0.1,0,0.2
				c0.1,0.1,0.1,0.1,0.2,0.1h0.5c0.1,0,0.2-0.1,0.3-0.2l0.7-3.5h2.7l0.8,4.4c0,0.2,0.1,0.2,0.3,0.2h0.5c0.1,0,0.2,0,0.2-0.1
				c0-0.1,0.1-0.1,0-0.2L11.4,9.7z M11.9,17.6H9.7l1.1-5.8L11.9,17.6z"/>
			<path class="st0" d="M19.7,16.2c0.8-0.4,1.3-2,1.3-3.4c0-2.4-1-3.8-2.8-3.8h-2.4c-0.1,0-0.2,0.1-0.2,0.2v14.1
				c0,0.1,0.1,0.2,0.2,0.2h2.3c1.9,0,3-1.4,3-3.9C21.1,17.9,20.5,16.5,19.7,16.2z M16.6,16.7C16.6,16.7,16.6,16.7,16.6,16.7l1.7,0
				c1.4,0,1.8,1.5,1.8,2.9c0,1.1-0.3,3-1.9,3h-1.5c0,0,0,0,0,0V16.7z M18.2,15.8h-1.6c0,0,0,0,0,0V9.9c0,0,0,0,0,0h1.6
				c1.6,0,1.8,2.1,1.8,3C20,14.2,19.4,15.8,18.2,15.8z"/>
			<path class="st0" d="M26.3,7.7c0-0.1-0.1-0.2-0.3-0.2h-0.5c-0.1,0-0.2,0.1-0.3,0.2l-2.7,16.1c0,0.1,0,0.1,0,0.2
				c0,0.1,0.1,0.1,0.2,0.1h0.5c0.1,0,0.2-0.1,0.3-0.2l0.9-5.2h2.7l0.9,5.5c0,0.2,0.1,0.2,0.3,0.2h0.5c0.1,0,0.2,0,0.2-0.1
				c0,0,0.1-0.1,0-0.2L26.3,7.7z M27,17.8h-2.3l1.1-7.9L27,17.8z"/>
			<path class="st0" d="M37.1,5h-0.4c-0.2,0-0.3,0.1-0.3,0.3l0,16.1L32.1,6.9c-0.1-0.2-0.2-0.2-0.4-0.2h-0.6c-0.2,0-0.3,0.1-0.3,0.3
				l0,17c0,0.2,0.1,0.3,0.3,0.3h0.4c0.2,0,0.3-0.1,0.3-0.3l0-14.3l4.4,14.2c0.1,0.2,0.2,0.2,0.4,0.2h0.6c0.2,0,0.3-0.1,0.3-0.3V5.3
				C37.4,5.1,37.3,5,37.1,5z"/>
			<path class="st0" d="M43.8,3.8c0.1,0,0.2-0.1,0.2-0.3V3c0-0.2-0.1-0.3-0.3-0.3l-3.4,1.4c-0.1,0-0.2,0.1-0.2,0.3v19.3
				c0,0.2,0.1,0.3,0.3,0.3h0l3.3-0.5c0.2,0,0.3-0.1,0.3-0.3v-0.4c0-0.2-0.1-0.3-0.3-0.3h0l-2.6,0.3V12.6l2.3-0.5
				c0.2,0,0.3-0.1,0.3-0.3v-0.4c0-0.1-0.1-0.3-0.3-0.3c0,0,0,0,0,0l-2.2,0.5V4.8L43.8,3.8z"/>
			<path class="st0" d="M51.5,21.4L50.2,8.9c0.8-0.6,1.2-2.2,1.2-3.5c0-1.8-0.8-3.7-2.6-3.7h0l-2,0.4c-0.2,0-0.3,0.1-0.3,0.3v20.4
				c0,0.2,0.1,0.3,0.3,0.3h0.5c0.2,0,0.3-0.1,0.3-0.3V9.8l1.3-0.3c0.1,0,0.3,0,0.4-0.1c0,0,0,0,0.1,0l1.2,12.1l0,0
				c0,0.1,0.1,0.2,0.3,0.2h0.5c0.1,0,0.1,0,0.2-0.1C51.5,21.5,51.6,21.5,51.5,21.4z M50.4,5.4c0,1.9-0.5,3-1.5,3.2l-1.3,0.3V2.8
				l1.4-0.3C50,2.6,50.4,4,50.4,5.4z"/>
			<path class="st0" d="M58,1.8c-0.3-0.9-1-1.3-2-1.3c-1,0-1.7,0.5-2,1.3c-0.2,0.5-0.2,8.6-0.2,8.6c0,0.1,0,8.5,0.2,9
				c0.3,0.9,1,1.3,2,1.3c1,0,1.7-0.5,2-1.3c0.2-0.5,0.2-8.9,0.2-9C58.2,10.4,58.2,2.3,58,1.8z M56,19.8c-0.6,0-0.9-0.2-1.1-0.7
				c-0.1-0.3-0.1-5.8-0.1-8.7c0-3.2,0.1-8.1,0.1-8.3c0.2-0.5,0.5-0.7,1.1-0.7c0.6,0,0.9,0.2,1.1,0.7c0.1,0.3,0.1,5.6,0.1,8.4
				c0,2.9-0.1,8.4-0.1,8.7C56.9,19.7,56.4,19.8,56,19.8z"/>
		</g>
		<g>
			<path class="st0" d="M63.3,14c-0.6,0-1.2,0-1.9,0c-0.2,0-0.4-0.2-0.4-0.5c0-0.2,0.2-0.4,0.5-0.4c9.2,0.6,12.6-2.2,16.2-5.5
				c0.2-0.2,0.5-0.1,0.6,0c0.2,0.2,0.2,0.5,0,0.6C74.8,11.4,71.5,14,63.3,14z"/>
		</g>
		<path class="st0" d="M31,31.4L31,31.4L31,31.4c0.1,0,0.2-0.1,0.3-0.2c0.1-0.1,0.1-0.3,0-0.4c-0.1-0.1-0.2-0.2-0.3-0.2c0,0,0,0,0,0
			l-1.7-0.1C19.8,30.1,8,29.3,1.2,26.8c0,0-0.1,0-0.1,0c-0.2,0-0.4,0.2-0.4,0.3c0,0.2,0.1,0.3,0.2,0.4c7.3,2.7,19.7,3.4,28.3,3.8
			C29.2,31.4,30.4,31.4,31,31.4z M31,31.4L31,31.4L31,31.4L31,31.4z"/>
	</g>
</g>
</svg>
