<?xml version="1.0" encoding="utf-8"?>
<!-- Generator: Adobe Illustrator 21.0.0, SVG Export Plug-In . SVG Version: 6.00 Build 0)  -->
<svg version="1.1" id="Capa_1" xmlns="http://www.w3.org/2000/svg" xmlns:xlink="http://www.w3.org/1999/xlink" x="0px" y="0px"
	 viewBox="0 0 20 17" style="enable-background:new 0 0 20 17;" xml:space="preserve">
<style type="text/css">
	.st0{fill:#1D1F29;}
</style>
<path class="st0" d="M6.3,16.3c7.3,0,11.3-6,11.3-11.3c0-0.2,0-0.3,0-0.5c0.8-0.6,1.4-1.3,2-2C18.8,2.8,18,3,17.2,3.1
	C18,2.6,18.7,1.8,19,0.9c-0.8,0.5-1.6,0.8-2.5,1c-0.7-0.8-1.7-1.2-2.9-1.2c-2.2,0-4,1.8-4,4c0,0.3,0,0.6,0.1,0.9
	C6.4,5.3,3.5,3.7,1.6,1.3C1.2,1.9,1,2.6,1,3.3c0,1.4,0.7,2.6,1.8,3.3C2.1,6.6,1.5,6.4,1,6.1c0,0,0,0,0,0.1C1,8.1,2.3,9.7,4.2,10
	c-0.3,0.1-0.7,0.1-1,0.1c-0.3,0-0.5,0-0.7-0.1c0.5,1.6,2,2.7,3.7,2.7c-1.4,1.1-3.1,1.7-4.9,1.7c-0.3,0-0.6,0-0.9-0.1
	C2,15.6,4,16.3,6.3,16.3"/>
</svg>
